<svg aria-hidden="true" style="position:absolute;width:0;height:0;overflow:hidden" xmlns="http://www.w3.org/2000/svg"><defs><symbol id="icon-antenna" viewBox="0 0 32 32"><path fill="#212121" style="fill:var(--color1, #212121)" d="m30.773 22.098-8.443-8.505.937-4.616c.225.09.485.144.758.146h.033c1.192 0 2.159-.967 2.159-2.159s-.967-2.159-2.159-2.159c-1.192 0-2.159.967-2.159 2.159 0 .259.046.508.13.739l-.005-.015-4.96.606L8.973.161a.53.53 0 0 0-.376-.16.5362.5362 0 0 0-.373.155L6.712 1.66c-.096.097-.156.23-.156.377s.06.281.156.377l.814.825C6.383 5.301 5.71 7.761 5.71 10.378c0 4.106 1.656 7.824 4.336 10.525l-.001-.001c.043.041.092.074.146.097a2.986 2.986 0 0 0-.052.546v6.188h-6.4c-1.472.001-2.666 1.194-2.667 2.666v1.067c0 .295.239.534.534.534H26.14c.294 0 .533-.239.533-.534v-1.067c-.002-1.472-1.195-2.665-2.666-2.666h-6.4v-2.742c1.003.21 2.024.317 3.049.32 2.58-.003 5.005-.663 7.117-1.822l-.077.039.818.823c.099.101.235.159.376.16.14-.001.274-.057.373-.155l1.512-1.504c.096-.097.156-.23.156-.377s-.06-.281-.156-.377zM23.28 6.233c.193-.192.459-.31.752-.31.589 0 1.067.478 1.067 1.066s-.477 1.066-1.067 1.066h-.004c-.587-.003-1.061-.479-1.061-1.066 0-.295.12-.563.314-.756h-.002zm-1.256 3.504-.598 2.946-1.175-1.183 1.774-1.763zm-.605-.902-1.92 1.909-1.486-1.493 3.406-.416zM24.004 28.8c.884 0 1.6.716 1.6 1.6v.534H2.138V30.4c0-.884.716-1.6 1.6-1.6h20.267zm-7.466-2.134v1.067h-5.334v-1.067h5.334zM11.204 25.6v-4.053c0-1.294 1.196-2.346 2.667-2.346s2.667 1.053 2.667 2.346V25.6h-5.334zm6.4-1.696v-2.357c0-1.882-1.675-3.413-3.733-3.413h-.058c-1.353 0-2.54.707-3.213 1.771l-.009.016c-2.36-2.482-3.812-5.846-3.812-9.55 0-2.314.567-4.496 1.569-6.414l-.036.077 18.602 18.709c-1.823.947-3.979 1.502-6.266 1.502-1.079 0-2.128-.124-3.136-.357l.093.018zm11.289-.684L7.836 2.039l.754-.752 7.935 7.98c.004 0 .006.007.01.01l13.114 13.191-.757.752z"/><path fill="#2196f3" style="fill:var(--color2, #2196f3)" d="M13.876 20.267h-.007c-.884 0-1.6.716-1.6 1.6s.715 1.599 1.597 1.6h.007c.884 0 1.6-.716 1.6-1.6s-.715-1.599-1.598-1.6zm.373 1.978a.5297.5297 0 0 1-.376.155c-.295 0-.534-.239-.534-.534s.238-.533.532-.533a.533.533 0 0 1 .531.533c0 .148-.06.282-.157.378h.005z"/></symbol><symbol id="icon-astronaut" viewBox="0 0 32 32"><path fill="#2196f3" style="fill:var(--color2, #2196f3)" d="M31.974 4.524c-.064-.191-.227-.332-.427-.362h-.003l-1.911-.278-.855-1.731c-.179-.365-.777-.365-.956 0l-.855 1.731-1.911.278c-.26.039-.457.26-.457.528 0 .15.062.285.161.382l1.383 1.348-.326 1.903c-.034.2.048.402.212.522.166.12.383.135.562.04l1.709-.899 1.709.899a.531.531 0 0 0 .247.061.5339.5339 0 0 0 .526-.626v.003l-.326-1.903 1.383-1.348a.5348.5348 0 0 0 .134-.55l.001.004zm-2.463 1.327a.5308.5308 0 0 0-.153.472l.191 1.114-1-.526c-.072-.039-.158-.062-.249-.062s-.177.023-.252.063l.003-.001-1 .526.191-1.114a.53.53 0 0 0-.152-.472l-.811-.79 1.119-.162a.5324.5324 0 0 0 .402-.292l.5-1.013.5 1.013c.078.158.228.267.402.292l1.119.162-.809.79zm-3.377 14.671h-1.067v1.067h1.067v-1.067zm0 2.134h-1.067v1.066h1.067v-1.066zm1.066-1.067h-1.067v1.067H27.2v-1.067zm-2.133 0H24v1.067h1.067v-1.067zm-2.667 4.8h-1.067v1.067H22.4v-1.067zm0 2.134h-1.067v1.067H22.4v-1.067zm1.067-1.067H22.4v1.067h1.067v-1.067zm-2.133 0h-1.067v1.067h1.067v-1.067zM16 24.256h-1.066v1.067H16v-1.067zm0 2.133h-1.066v1.067H16v-1.067zm1.067-1.067H16v1.067h1.067v-1.067zm-2.133 0h-1.067v1.067h1.067v-1.067zm-9.067-19.2H4.801v1.066h1.066V6.122zm0 2.134H4.801v1.066h1.066V8.256zm1.066-1.067H5.866v1.067h1.066V7.189zm-2.133 0H3.733v1.067H4.8V7.189z"/><path fill="#212121" style="fill:var(--color1, #212121)" d="M24.715 14.16c-.28-.376-.698-.636-1.179-.703l-.009-.001a1.6677 1.6677 0 0 0-.254-.018c-.411 0-.789.139-1.09.373l.004-.003-1.253.96-1.898 1.417-1.358-.541c2.421-1.086 4.113-3.508 4.113-6.32 0-3.823-3.122-6.934-6.961-6.934S7.869 5.5 7.869 9.324c0 1.386.415 2.674 1.12 3.759l-2.768-.024c-.009 0-.016.005-.023.005a.5113.5113 0 0 0-.159.033l.004-.001c-.013.005-.026.007-.038.013-.006.003-.013.003-.019.006l-3.233 1.596s-.001 0-.001.001l-1.893.91a.4994.4994 0 0 0-.065.036l.001-.001C.313 15.981 0 16.524 0 17.14c0 .297.073.577.201.823l-.005-.01c.22.424.592.742 1.043.885l.013.003c.161.053.345.083.537.083.308 0 .598-.078.851-.216l-.009.005 1.388-.738 2.264-1.169 1.357-.008-5.442 5.415c0 .001-.001.001-.001.001L.858 23.547c-.303.299-.491.714-.491 1.173v.005c.002.919.748 1.664 1.667 1.664h.002c.428 0 .854-.162 1.18-.485l1.314-1.309 1.741-1.3.901.897L4.07 27.28c-.303.299-.491.714-.491 1.173v.004c0 .445.174.864.49 1.179.302.3.717.485 1.176.485h.003c.427 0 .855-.162 1.18-.485l4.488-4.472c.007-.006.016-.009.022-.016l5.166-5.658 3.471.494c.025.004.05.006.075.006.064 0 .127-.016.187-.038.017-.006.032-.015.049-.023.019-.01.039-.015.058-.027l3.213-2.133c.012-.008.018-.021.029-.03.013-.01.029-.014.041-.026l1.271-1.191c.348-.326.564-.787.564-1.3 0-.4-.132-.769-.355-1.066l.003.005zM2.13 17.77a.7058.7058 0 0 1-.34.086.7247.7247 0 0 1-.224-.036l.005.001c-.294-.093-.504-.364-.504-.683 0-.235.114-.444.289-.575l.002-.001 1.314-.632.316.924.133.389-.992.527zm3.497-1.828-1.548.8-.255-.746-.184-.537 2.027-1.001-.04 1.484zm15.1-6.62c0 .918-.219 1.785-.599 2.56l-4.181-1.899a1.865 1.865 0 0 0-.782-1.384l-.006-.004 1.464-4.861c2.377.757 4.104 2.975 4.104 5.588zm-11.789 0c0-3.235 2.644-5.867 5.894-5.867.253 0 .5.022.745.053l-1.432 4.753c-.019 0-.037-.006-.057-.006h-.001c-1.032 0-1.869.835-1.872 1.867.003 1.031.84 1.867 1.872 1.867h.001c.695 0 1.295-.383 1.618-.944l3.863 1.755c-1.075 1.447-2.795 2.39-4.737 2.39-3.25 0-5.894-2.632-5.894-5.867zm5.957.8c0 .441-.362.8-.806.8h-.001a.8038.8038 0 0 1-.804-.8c0-.441.361-.8.806-.8s.806.359.806.8zM2.464 25.146c-.11.109-.261.176-.428.176s-.317-.067-.427-.175c-.109-.108-.176-.257-.176-.422s.067-.314.176-.422l.962-.959.852.848-.959.954zm3.214 3.734c-.11.109-.261.176-.428.176s-.317-.067-.427-.175c-.109-.108-.176-.257-.176-.422s.067-.314.176-.422l.963-.959.852.848-.96.955zm3.482-3.469-.001.001-1.765 1.76-.852-.848 1.765-1.757c.04-.04.065-.088.09-.136.007-.014.02-.026.026-.04.016-.041.019-.085.026-.128.003-.025.014-.048.014-.073 0-.035-.013-.07-.02-.105-.006-.032-.006-.064-.019-.096a.5363.5363 0 0 0-.092-.138c-.01-.012-.014-.026-.025-.038h-.001s0-.001-.001-.002l-1.607-1.6c-.017-.017-.039-.024-.058-.038a.4912.4912 0 0 0-.084-.056l-.003-.001a.527.527 0 0 0-.09-.031l-.003-.001a.5019.5019 0 0 0-.101-.02h-.025c-.026 0-.051.002-.075.005h.003c-.036.005-.069.009-.104.021s-.064.027-.094.045c-.02.011-.043.015-.061.029l-1.774 1.324-.901-.897 2.399-2.386 4.36 4.289-.928.919zm6.819-7.017c-.016-.002-.03.004-.046.003-.008 0-.017-.001-.027-.001-.031 0-.062.003-.092.008h.003a.4841.4841 0 0 0-.187.07l.002-.001a.4923.4923 0 0 0-.083.061c-.013.011-.028.016-.04.029l-4.698 5.146-4.328-4.256 2.833-2.818a.5339.5339 0 0 0-.378-.911h-.002l-2.219.013.028-1.607 3.104.027c1.264 1.297 3.027 2.101 4.978 2.101h.003c.438 0 .864-.046 1.28-.122.04.032.08.064.129.085l2.41.96.152.758.178.886-3.003-.427zm4.041.178-.313-1.558 1.446-1.08.946 1.257-2.08 1.381zm3.753-2.831-.837.785-.931-1.236.831-.637c.155-.119.351-.168.543-.143.193.027.364.128.48.284.088.117.141.265.141.426 0 .206-.087.391-.226.521z"/><path fill="#212121" style="fill:var(--color1, #212121)" d="m13.602 18.544-2.143-2.134c-.096-.096-.229-.155-.376-.155s-.28.059-.376.155l-2.143 2.133c-.097.097-.156.23-.156.378s.06.281.156.378l2.142 2.134c.096.096.229.156.376.156s.28-.059.376-.156l2.143-2.134c.097-.097.157-.23.157-.378s-.06-.281-.157-.378zm-2.519 1.759-1.387-1.381 1.386-1.381 1.387 1.381-1.387 1.381zm6.081-15.232-.258 1.036c.071.018 1.738.452 1.738 2.149h1.067c0-2.017-1.666-2.965-2.547-3.184zm2.547 4.251h-1.067v1.066h1.067V9.322z"/></symbol><symbol id="icon-clock" viewBox="0 0 32 32"><path fill="#212121" style="fill:var(--color1, #212121)" d="M31.296 15.301C31.295 6.849 24.441-.002 15.988 0S.685 6.855.687 15.308c.002 6.788 4.422 12.543 10.541 14.545l.108.031c.061.019.123.029.187.029.12 0 .238-.032.342-.094.135-.08.236-.207.283-.357l3.865-12.25c1.054-.004 1.906-.859 1.906-1.913 0-1.056-.856-1.913-1.913-1.913-.303 0-.59.071-.845.196l.011-.005-5.106-5.107a.638.638 0 0 0-.443-.179c-.352 0-.638.286-.638.638 0 .172.068.328.179.443l5.103 5.109c-.121.241-.191.525-.191.826 0 .602.283 1.137.723 1.48l.004.003-3.682 11.673C3.843 25.782.117 17.709 2.797 10.431S13.551-.573 20.829 2.108c7.278 2.681 11.004 10.754 8.323 18.032-1.345 3.581-4.003 6.406-7.374 7.938l-.088.036-.398-1.874c-.063-.291-.318-.506-.624-.506a.637.637 0 0 0-.426.163l.001-.001-3.837 3.426a.6341.6341 0 0 0-.214.477c0 .283.185.524.441.606l.005.001 4.899 1.563c.058.02.126.031.196.031a.6368.6368 0 0 0 .622-.775l.001.004-.391-1.839c5.528-2.374 9.329-7.772 9.329-14.057v-.034.002zm-15.304-.637c.352 0 .638.286.638.638s-.285.638-.638.638c-.352 0-.638-.286-.638-.638s.286-.638.638-.638zm2.1 14.864 2.184-1.948.603 2.84-2.787-.892z"/><path fill="#2196f3" style="fill:var(--color2, #2196f3)" d="M15.354 3.185V4.46c0 .352.286.638.638.638s.638-.285.638-.638V3.185c0-.352-.285-.638-.638-.638s-.638.285-.638.638zM3.876 14.664c-.352 0-.638.286-.638.638s.285.638.638.638h1.275c.352 0 .638-.286.638-.638s-.285-.638-.638-.638H3.876zm24.232 1.275c.352 0 .638-.286.638-.638s-.285-.638-.638-.638h-1.275c-.352 0-.638.286-.638.638s.285.638.638.638h1.275z"/></symbol><symbol id="icon-companycompan" viewBox="0 0 57 32"><path fill="#afb1b8" style="fill:var(--color3, #afb1b8)" d="M19.417 26.187c.009 0 .017.002.025.005s.015.007.021.013l.116.111a.9644.9644 0 0 1-.327.211c-.129.048-.278.076-.434.076h-.032.002a1.213 1.213 0 0 1-.436-.071.9577.9577 0 0 1-.33-.2l.001.001a.9075.9075 0 0 1-.21-.302l-.002-.006a1.016 1.016 0 0 1-.075-.385v-.012.001-.02c0-.272.118-.516.305-.684l.001-.001c.099-.087.218-.155.349-.201.143-.048.296-.072.45-.07h.028c.139 0 .273.024.398.067l-.009-.003c.115.044.221.104.313.179l-.098.118a.1206.1206 0 0 1-.024.021.064.064 0 0 1-.034.009h-.006a.102.102 0 0 1-.043-.012L19.314 25l-.073-.041a.8226.8226 0 0 0-.225-.07l-.005-.001a1 1 0 0 0-.161-.013h-.013.001-.011c-.112 0-.219.02-.319.055l.007-.002a.734.734 0 0 0-.254.15l.001-.001a.67.67 0 0 0-.164.237c-.038.089-.059.193-.059.302v.011-.001.013c0 .11.022.215.061.311l-.002-.005c.036.087.091.167.162.236.067.064.149.115.242.147.095.034.196.051.299.051.059.001.119-.003.178-.01.148-.015.28-.074.385-.164l-.001.001c.015-.012.034-.02.055-.02zm3.358-.558v.012c0 .138-.029.269-.081.387l.002-.006a.8636.8636 0 0 1-.218.304l-.001.001a1.01 1.01 0 0 1-.337.198l-.007.002c-.132.045-.284.071-.442.071s-.31-.026-.452-.074l.01.003a1.0161 1.0161 0 0 1-.342-.202l.001.001a.8925.8925 0 0 1-.219-.303l-.002-.006c-.05-.116-.078-.251-.078-.393s.029-.277.081-.4l-.003.007c.05-.115.125-.22.221-.309.097-.085.213-.15.341-.194.132-.046.284-.072.442-.072s.31.026.452.075l-.01-.003c.129.045.246.114.343.201.096.088.171.192.22.305.054.127.081.261.078.396zm-.305 0v-.017c0-.108-.02-.211-.058-.305l.002.006c-.071-.182-.216-.322-.396-.384l-.005-.001c-.096-.033-.206-.052-.321-.052s-.225.019-.329.054l.007-.002a.6816.6816 0 0 0-.246.15.6258.6258 0 0 0-.156.232l-.001.004c-.035.094-.055.202-.055.316s.02.222.058.322l-.002-.006c.071.182.217.322.399.383l.005.001c.207.068.435.068.643 0a.6848.6848 0 0 0 .245-.148c.07-.069.123-.149.156-.236a.8166.8166 0 0 0 .055-.316zm2.597.331.031.07c.011-.025.021-.048.033-.07.013-.027.026-.05.039-.072l-.002.003.743-1.174c.015-.02.028-.033.043-.037s.033-.007.051-.007h.23v1.909h-.26v-1.463c-.001-.01-.001-.021-.001-.033s0-.023.001-.035v.002l-.748 1.19a.111.111 0 0 1-.043.043h-.001c-.018.01-.04.016-.063.016H25.075a.1339.1339 0 0 1-.063-.016h.001a.111.111 0 0 1-.043-.043v-.001l-.77-1.198v1.532h-.251v-1.905h.229c.018 0 .036.002.052.007h-.001c.018.008.032.021.041.037l.759 1.175c.014.02.026.042.037.066l.001.003zm2.796-.095v.715h-.29v-1.906h.649c.123-.002.244.012.362.042.094.023.181.064.256.119.062.049.111.112.144.184l.001.003c.035.078.051.161.05.244v.012a.53.53 0 0 1-.209.422l-.001.001a.757.757 0 0 1-.258.126 1.208 1.208 0 0 1-.327.044h-.024l-.351-.005zm0-.205h.352c.076.001.153-.009.226-.029a.4881.4881 0 0 0 .164-.083l-.001.001a.3645.3645 0 0 0 .133-.282v-.005c0-.006.001-.013.001-.021 0-.049-.011-.095-.03-.137l.001.002a.3711.3711 0 0 0-.101-.13l-.001-.001a.621.621 0 0 0-.345-.104c-.016 0-.032.001-.048.002h.002-.352v.786zm3.909.922h-.233a.1115.1115 0 0 1-.06-.018.116.116 0 0 1-.038-.044v-.001l-.197-.461h-.994l-.205.461a.1092.1092 0 0 1-.099.062h-.233l.873-1.909h.302l.884 1.909zm-1.44-.708h.82l-.346-.777a1.3296 1.3296 0 0 1-.066-.179l-.034.1c-.01.03-.021.059-.032.081l-.343.775zm2.697-1.191c.017.008.032.02.043.034l1.273 1.439v-1.482h.26v1.909h-.148c-.02 0-.04-.004-.057-.012h.001a.1649.1649 0 0 1-.047-.035l-1.27-1.438c.001.01.001.021.001.033s0 .023-.001.034v-.002 1.419h-.26v-1.909h.154c.018 0 .036.003.052.009zm3.719 1.14v.758h-.291v-.757l-.804-1.15h.266c.021 0 .04.006.056.016a.175.175 0 0 1 .039.043l.503.742c.02.032.038.061.052.089s.027.054.037.081l.037-.082c.014-.03.031-.059.05-.087l.496-.747a.2021.2021 0 0 1 .037-.04.0952.0952 0 0 1 .057-.019h.269l-.805 1.155zM24.923 21.47c.126.014.254.025.384.035 1.962-.763 3.622-2.011 4.772-3.588s1.739-3.415 1.694-5.282l-2.162-1.878c.439 1.988.234 4.043-.594 5.935s-2.245 3.547-4.094 4.779z"/><path fill="#afb1b8" style="fill:var(--color3, #afb1b8)" d="m24.151 21.382.058.011c1.975-1.228 3.481-2.942 4.323-4.922s.981-4.133.4-6.181l-3.08-2.676c1.245 2.199 1.747 4.661 1.445 7.099-.301 2.437-1.392 4.75-3.147 6.669zm10.445-6.541c-.523 2.052-1.794 3.902-3.623 5.276-.5.38-1.064.737-1.658 1.043l-.065.03c1.49-.38 2.859-1.053 4.003-1.966s2.03-2.042 2.592-3.3l-1.249-1.084z"/><path fill="#afb1b8" style="fill:var(--color3, #afb1b8)" d="m34.106 14.539-1.778-1.545c-.034 1.762-.611 3.483-1.669 4.986s-2.562 2.732-4.352 3.559h.009c.399 0 .797-.021 1.194-.062 1.673-.594 3.151-1.538 4.302-2.748s1.94-2.65 2.295-4.189zm-9.697-8.054L22.287 4.64c-1.897.637-3.527 1.756-4.68 3.212s-1.772 3.179-1.778 4.946c.007 1.952.763 3.846 2.149 5.383 1.385 1.536 3.321 2.628 5.501 3.101 1.946-2.06 3.085-4.605 3.252-7.266s-.647-5.299-2.323-7.531zm14.599 7.769c-.007-2.316-1.07-4.535-2.955-6.173s-4.439-2.561-7.105-2.567h-.021c-1.281 0-2.512.213-3.66.606l.079-.024 12.989 11.286c.423-.919.671-1.995.672-3.128z"/></symbol><symbol id="icon-companyfosterpeters" viewBox="0 0 57 32"><path fill="#afb1b8" style="fill:var(--color2, #afb1b8)" d="M12.878 11.255h-.002c-1.279 0-2.316.921-2.316 2.058v.002c0 1.137 1.037 2.058 2.316 2.058h.002c1.279 0 2.316-.922 2.316-2.058v-.001c0-1.137-1.037-2.059-2.316-2.059zm17.093-.658c-.004-1.579-.711-3.092-1.967-4.209s-2.958-1.745-4.734-1.749c-1.777.003-3.481.631-4.737 1.748s-1.964 2.63-1.968 4.209v8.706s13.405-1.327 13.406-8.704v-.002zM5.867 22.16c.003 1.099.496 2.151 1.37 2.928s2.058 1.214 3.294 1.218c1.236-.003 2.42-.441 3.294-1.218s1.366-1.829 1.37-2.927v-6.058s-9.327.924-9.327 6.057zm4.663 1.085c-.242 0-.477-.063-.678-.183-.195-.115-.35-.281-.447-.48l-.003-.007c-.059-.121-.093-.264-.093-.415 0-.075.009-.148.025-.219l-.001.007c.047-.211.163-.404.334-.556s.388-.255.625-.297c.072-.013.154-.021.239-.021.168 0 .328.03.476.085l-.009-.003c.223.082.414.221.548.4s.206.388.206.603c.001.143-.03.285-.092.417-.066.139-.155.256-.263.352l-.001.001a1.238 1.238 0 0 1-.397.236c-.139.053-.3.083-.467.083h-.001v-.004zm9.426-.598h-.9v.93h-.469v-2.276h1.482v.38h-1.013v.588h.9v.378zm2.253-.156c0 .224-.039.42-.118.589s-.193.299-.341.391a.9309.9309 0 0 1-.489.138h-.018.001c-.189 0-.357-.045-.505-.136a.917.917 0 0 1-.341-.382l-.002-.006c-.078-.165-.123-.358-.123-.561v-.021.001-.112c0-.224.04-.421.12-.591.081-.171.195-.302.342-.392.148-.092.316-.138.506-.138s.357.046.505.138c.148.091.262.221.342.392.081.17.122.366.122.589v.101zm-.475-.103c0-.238-.043-.42-.128-.544a.4173.4173 0 0 0-.348-.186h-.019.001-.018c-.144 0-.271.073-.346.183l-.001.001c-.085.122-.129.301-.13.538v.111c0 .232.043.412.128.54s.208.192.369.192h.018c.143 0 .269-.073.343-.183l.001-.001c.084-.124.127-.304.128-.541v-.111zm1.995.592v-.013c0-.077-.037-.145-.093-.189h-.001c-.062-.048-.175-.098-.338-.15-.15-.047-.278-.1-.399-.163l.014.006c-.259-.14-.388-.328-.388-.564 0-.123.034-.233.103-.328.07-.097.17-.172.299-.227.13-.054.276-.081.437-.081.163 0 .307.029.435.089.127.059.226.141.295.249.071.107.107.229.107.365h-.469c0-.104-.032-.185-.098-.242-.066-.059-.158-.087-.276-.087-.115 0-.204.025-.267.074a.2282.2282 0 0 0-.096.185v.006c0 .074.037.136.111.186.075.05.185.097.33.14.267.08.461.18.583.299s.183.267.183.444c0 .197-.075.352-.224.464s-.349.167-.601.167c-.175 0-.334-.032-.478-.096a.7707.7707 0 0 1-.328-.261l-.002-.002a.6722.6722 0 0 1-.112-.373v-.015.001h.47c0 .251.15.377.45.377.111 0 .198-.022.261-.067a.2226.2226 0 0 0 .093-.182v-.009zm2.502-1.298h-.697v1.895h-.469v-1.895h-.686v-.38h1.853v.38zm1.637.909h-.9v.61h1.056v.377h-1.525v-2.276h1.522v.38h-1.053v.542h.9v.367zm1.274.153h-.373v.833H28.3v-2.276h.845c.269 0 .476.06.622.18s.219.289.219.508c0 .155-.034.285-.101.389a.6895.6895 0 0 1-.3.245l-.005.002.492.93v.021h-.503l-.427-.832zm-.373-.38h.379c.117 0 .208-.029.273-.089.06-.059.097-.141.097-.231v-.018.001c0-.108-.03-.192-.092-.253s-.154-.092-.28-.092h-.377v.683zm2.84.411v.802h-.469v-2.276h.887c.171 0 .321.031.45.094.13.062.23.151.3.267.069.115.105.245.105.392 0 .223-.077.399-.229.528-.153.128-.363.193-.633.193h-.411zm0-.379h.419c.124 0 .219-.029.283-.087.066-.059.099-.142.099-.25v-.017c0-.098-.037-.187-.099-.254-.066-.068-.156-.104-.272-.106h-.43v.715zm2.965.195h-.9v.61h1.056v.377h-1.525v-2.276h1.522v.38h-1.053v.542h.9v.367zm2.176-.909h-.697v1.895h-.469v-1.895h-.687v-.38h1.853v.38zm1.637.909h-.899v.61h1.056v.377h-1.525v-2.276h1.522v.38h-1.053v.542h.9v.367zm1.274.153h-.373v.833h-.469v-2.276h.846c.269 0 .476.06.622.18s.219.289.219.508c0 .155-.034.285-.101.389a.6866.6866 0 0 1-.301.245l-.005.002.492.93v.021h-.503l-.427-.832zm-.374-.38h.378c.117 0 .209-.029.273-.089a.324.324 0 0 0 .097-.232v-.018.001c0-.108-.03-.192-.092-.253-.06-.061-.154-.092-.279-.092h-.377v.683zm2.755.616v-.013c0-.077-.037-.146-.094-.189h-.001c-.062-.048-.175-.098-.338-.15-.15-.047-.278-.1-.399-.163l.014.006c-.259-.14-.388-.328-.388-.564 0-.123.035-.233.103-.328.07-.097.17-.172.299-.227.13-.054.276-.081.437-.081.163 0 .307.029.435.089.127.059.226.141.295.249.071.107.107.229.107.365h-.469c0-.104-.032-.185-.098-.242-.066-.059-.158-.087-.276-.087-.115 0-.204.025-.267.074a.2287.2287 0 0 0-.096.186v.005c0 .074.037.136.111.186s.185.097.33.14c.267.08.461.18.583.299s.183.267.183.444c0 .197-.075.352-.224.464s-.349.167-.601.167c-.175 0-.334-.032-.478-.096a.7707.7707 0 0 1-.328-.261l-.002-.002a.6722.6722 0 0 1-.112-.373v-.015.001h.47c0 .251.15.377.45.377.111 0 .198-.022.261-.067a.2235.2235 0 0 0 .094-.182v-.009z"/></symbol><symbol id="icon-companylogo" viewBox="0 0 57 32"><path fill="#afb1b8" style="fill:var(--color3, #afb1b8)" d="m20.267 3.733 3.738 3.538-6.938-.004v17.166H35.2v-6.564l3.733 3.534V3.732H20.266zm14.769 13.722L24.439 7.423h10.597v10.032zm-3.29 4.468h-11.81V10.378h.835v10.764h10.975v.782zm-9.021 4.797h.365l-.635 1.198v.698h-.331v-.698l-.637-1.198h.366l.436.898.436-.898zm.548 1.895.154-.441h.734l.155.441h.344l-.717-1.896h-.296l-.716 1.896h.342zm.521-1.493.275.786h-.549l.275-.786zm1.737.741c.048-.074.142-.161.283-.262-.074-.093-.125-.172-.155-.237s-.043-.128-.043-.189c0-.148.045-.266.135-.352s.212-.13.365-.13c.138 0 .251.041.339.122s.133.181.133.301c0 .079-.02.152-.06.219s-.105.132-.197.198l-.129.094.366.432c.053-.104.079-.22.079-.348h.275c0 .233-.055.425-.164.574l.279.329h-.367l-.107-.126c-.135.102-.297.152-.484.152s-.338-.049-.451-.148c-.112-.1-.168-.23-.168-.389 0-.088.024-.168.072-.241zm.855.419-.414-.488-.04.029c-.104.079-.156.169-.156.271 0 .088.028.159.085.214s.132.082.227.082c.107 0 .207-.036.299-.107zm-.34-.84.145-.099.04-.033c.054-.048.081-.109.081-.184 0-.049-.019-.092-.056-.126s-.085-.053-.142-.053c-.062 0-.111.021-.147.063s-.055.094-.055.158c0 .073.045.164.134.275zm3.086 1.03c-.13.113-.303.169-.52.169-.151 0-.284-.036-.4-.107s-.203-.174-.266-.306-.095-.285-.098-.46v-.177c0-.179.032-.336.095-.473s.154-.241.272-.315c.119-.074.256-.111.411-.111.209 0 .378.057.505.171s.202.274.223.482h-.328c-.016-.136-.056-.234-.12-.294s-.157-.091-.28-.091c-.143 0-.253.053-.331.158s-.115.257-.117.46v.168c0 .205.036.361.109.469s.181.161.323.161c.129 0 .227-.029.292-.087s.106-.155.124-.29h.328c-.019.202-.094.36-.224.474zm1.936-.266c-.064.14-.156.247-.276.323s-.256.112-.411.112c-.154 0-.291-.037-.411-.112s-.213-.183-.279-.322c-.065-.139-.098-.299-.099-.48v-.107c0-.185.033-.348.098-.49s.158-.25.277-.324c.12-.076.257-.113.411-.113s.291.037.41.112c.12.074.212.181.277.32s.098.301.099.486v.105c0 .186-.032.349-.096.49zm-.352-1.071c-.079-.112-.191-.168-.337-.168-.142 0-.254.056-.335.168s-.121.269-.122.473v.109c0 .208.04.369.121.483s.194.171.339.171c.146 0 .258-.056.336-.167s.119-.273.119-.487v-.099c0-.21-.04-.371-.12-.483z"/></symbol><symbol id="icon-companytagline" viewBox="0 0 57 32"><path fill="#afb1b8" style="fill:var(--color3, #afb1b8)" d="M28.493 14.618a1.5626 1.5626 0 0 1-.322-1.065v.005-1.538c0-.471.107-.829.321-1.075.213-.245.581-.367 1.101-.366.489 0 .837.105 1.042.313.224.266.333.591.308.919v.362h-.875v-.366c.003-.119-.005-.239-.026-.358a.3405.3405 0 0 0-.125-.212l-.001-.001a.499.499 0 0 0-.279-.084c-.013 0-.026.001-.039.001h.002c-.011-.001-.025-.001-.038-.001-.11 0-.212.033-.297.09l.002-.001a.4153.4153 0 0 0-.145.232v.003c-.022.105-.035.226-.035.351v.031-.002 1.866c-.014.18.025.36.112.524.045.056.104.1.172.126l.003.001a.4798.4798 0 0 0 .228.029H29.6a.433.433 0 0 0 .037.001c.102 0 .197-.032.274-.087l-.002.001a.37.37 0 0 0 .13-.224v-.002c.02-.124.03-.249.027-.374v-.379h.875v.346a1.397 1.397 0 0 1-.305.969l.002-.003c-.201.228-.544.342-1.047.342s-.884-.122-1.1-.375zm3.644.016c-.221-.24-.332-.588-.332-1.05v-1.618c0-.457.11-.803.332-1.037s.59-.351 1.109-.35c.515 0 .882.117 1.103.35.221.235.333.58.333 1.037v1.617c0 .457-.112.807-.337 1.049s-.59.361-1.1.361-.886-.122-1.109-.359zm1.516-.389a.9025.9025 0 0 0 .105-.478v-1.981a.872.872 0 0 0 .002-.053c0-.152-.039-.296-.107-.421l.002.005a.4248.4248 0 0 0-.176-.128l-.003-.001a.4727.4727 0 0 0-.171-.031c-.021 0-.042.001-.062.004h.002a.53.53 0 0 0-.059-.004c-.062 0-.121.011-.176.032l.003-.001a.4157.4157 0 0 0-.179.128l-.001.001c-.08.147-.116.308-.105.469v1.99c-.011.165.025.329.105.479.051.05.114.091.185.118a.6222.6222 0 0 0 .454-.002l-.004.001a.5632.5632 0 0 0 .185-.118v-.01zm2.082-3.619h.942l.708 2.984.725-2.984h.916l.093 4.307h-.678l-.073-2.994-.699 2.994h-.544l-.724-3.005-.067 3.005h-.685l.085-4.307zm4.441 0h1.468c.845 0 1.268.407 1.268 1.223 0 .781-.445 1.171-1.335 1.17h-.5v1.914h-.906l.005-4.308zm1.254 1.841c.09.01.18.003.267-.021a.6349.6349 0 0 0 .231-.115c.104-.146.15-.316.131-.486a1.3248 1.3248 0 0 0-.046-.4l.002.009a.3172.3172 0 0 0-.067-.119.3864.3864 0 0 0-.112-.085l-.002-.001a.913.913 0 0 0-.357-.071c-.017 0-.033 0-.05.001h.002-.351v1.287h.352zm2.789-1.841h.973l.998 4.307h-.845l-.197-.993h-.868l-.203.993h-.857l.998-4.307zm.831 2.816-.339-1.808-.339 1.808h.677zm1.946-2.816h.635l1.213 2.457v-2.457h.752v4.307h-.603l-1.221-2.565v2.565h-.777l.002-4.307zm4.361 2.665-1.009-2.659h.85l.616 1.708.578-1.708h.832l-.997 2.659v1.642h-.869V13.29zm-21.465 3.526v.225h-.739v1.75h-.31v-1.75H28.1v-.225h1.792zm2.318 1.976h-.246a.1052.1052 0 0 1-.061-.019.1004.1004 0 0 1-.039-.045v-.001l-.214-.469h-1.026l-.213.469a.1258.1258 0 0 1-.033.053.1083.1083 0 0 1-.062.019h-.245l.906-1.975h.315l.917 1.968zm-1.501-.734h.855l-.363-.804a1.2783 1.2783 0 0 1-.064-.176l-.003-.01c-.013.037-.023.074-.034.105l-.033.083-.358.803zm3.062.539c.057.003.114.003.171 0 .049-.004.097-.012.145-.023.044-.009.088-.021.131-.036.04-.014.08-.031.121-.049v-.444h-.365a.0755.0755 0 0 1-.046-.016c-.006-.004-.01-.01-.014-.016a.0342.0342 0 0 1-.004-.018v-.153h.703v.757c-.11.068-.237.123-.372.158l-.01.002c-.075.019-.15.033-.227.041-.088.009-.176.012-.265.012h-.011c-.159 0-.312-.027-.455-.077l.01.003c-.14-.049-.26-.119-.364-.208l.002.001a.9524.9524 0 0 1-.231-.307l-.002-.006c-.053-.117-.083-.253-.083-.397v-.013.001-.012c0-.145.03-.283.084-.407l-.003.007a.9066.9066 0 0 1 .234-.313c.103-.089.227-.158.363-.205.155-.051.32-.076.485-.074.084 0 .169.005.252.017.074.011.146.027.215.05.064.02.124.047.181.078.055.031.108.065.158.103l-.087.122a.073.073 0 0 1-.029.026.0933.0933 0 0 1-.042.011.111.111 0 0 1-.057-.016h.001a.892.892 0 0 1-.094-.05l.005.003a.8139.8139 0 0 0-.115-.052l-.006-.002a1.0266 1.0266 0 0 0-.16-.043l-.007-.001a1.3396 1.3396 0 0 0-.218-.017h-.013.001-.011c-.121 0-.238.02-.346.057l.008-.002a.7737.7737 0 0 0-.267.156.6718.6718 0 0 0-.166.241l-.002.005c-.038.098-.061.211-.061.329s.022.232.063.336l-.002-.006c.039.093.101.178.181.249.074.068.164.121.264.156.115.034.237.047.359.039zm2.888-.031h.989v.225h-1.291v-1.975h.309l-.007 1.75zm2.018.226h-.309v-1.975h.309v1.975zm1.153-1.966c.019.009.034.021.047.036l1.324 1.489c-.001-.011-.001-.023-.001-.035s0-.025.001-.037v.002-1.472h.27v1.984h-.166a.14.14 0 0 1-.058-.012h.001a.162.162 0 0 1-.048-.037l-1.323-1.488v1.536h-.259v-1.975h.161c.018 0 .035.003.051.009zm3.923-.01v.217h-1.098v.652h.89v.21h-.89v.674h1.098v.218h-1.417v-1.971h1.417zm-32.467-12.2 13.757 3.372v11.818l-13.757-3.371V4.616zm-.882-1.008V17.01l15.52 3.806V7.417L10.404 3.61z"/><path fill="#afb1b8" style="fill:var(--color3, #afb1b8)" d="M18.722 27.036 3.2 23.227V9.828l15.522 3.807v13.401z"/><path fill="#afb1b8" style="fill:var(--color3, #afb1b8)" d="m10.661 4.465 13.578 3.33-5.774 4.987L4.886 9.45l5.776-4.986zm-.257-.856L3.2 9.828l15.522 3.808 7.202-6.22-15.52-3.807zm9.191 22.673 6.329-5.466-6.33-1.552v7.019z"/></symbol><symbol id="icon-companytaglinehere" viewBox="0 0 57 32"><path fill="#afb1b8" style="fill:var(--color3, #afb1b8)" d="M26.727 3.165c.123 0 .254.011.386.022l.039.003.039.002c.66.048 1.305.149 1.849.282V1.947c-.639-.161-1.292-.265-1.949-.311-.25-.019-.516-.031-.788-.038h-.231c-1.389.005-2.737.189-3.909.505l-.11.024c-1.464.375-2.847.954-4.042 1.665v15.145l-.087.044c1.224-.676 2.541-1.204 4.044-1.586l-.12.027c1.094-.287 2.229-.469 3.442-.537h.045c.188-.01.375-.015.568-.016v-1.551h-.012c-1.53.02-3.015.228-4.305.573-.522.135-1.027.282-1.5.445l-.54.183V4.71l.23-.111-.09.039c1.728-.835 3.64-1.35 5.699-1.47h-.001c.008-.001.017-.001.025-.001s.017 0 .024.001c.214-.011.43-.016.642-.016h.243c.112.003.224.005.336.012h.073zm2.688 1.561c.339.026.69.038 1.044.038 1.464-.006 2.881-.198 4.231-.554l-.117.026c1.502-.383 2.819-.912 4.043-1.587l-.087.044v14.875c-1.195.71-2.578 1.289-4.042 1.665l-.11.024c-1.173.314-2.52.498-3.91.503h-.1c-1.02 0-2.01-.128-2.955-.368l.083.018V4.438c.229.053.466.102.706.142.394.067.81.115 1.214.145zm7.57.116-.54.181c-.496.167-.997.316-1.5.449-1.344.36-2.888.569-4.48.575h-.004c-.352 0-.676-.01-.989-.03l-.43-.028v12.148l.37.032c.342.03.696.045 1.052.045 1.257-.006 2.473-.172 3.631-.48l-.1.023c1.059-.269 1.977-.608 2.848-1.031l-.088.039.23-.111V4.842zM19.06 24.113a.7935.7935 0 0 0-.572-.243c-.01 0-.02 0-.03.001h.001-.012c-.121 0-.236.024-.34.067l.006-.002a.7847.7847 0 0 0-.442.444l-.002.005a.8735.8735 0 0 0-.062.335v2.023c-.005.142.022.284.079.415.048.104.117.196.203.271a.714.714 0 0 0 .277.144c.099.027.201.042.302.042.113.001.224-.023.326-.07.304-.135.512-.434.512-.781v-.226h-.53v.192c0 .06-.011.118-.032.171l.001-.003a.315.315 0 0 1-.077.114.3673.3673 0 0 1-.221.077.2647.2647 0 0 1-.247-.108l-.001-.001a.478.478 0 0 1-.071-.251v-.021.001-1.887a.6429.6429 0 0 1 .065-.302.2702.2702 0 0 1 .227-.124c.011 0 .022.001.033.002h-.001.01c.092 0 .174.045.226.114l.001.001c.055.071.088.162.088.26v.012-.001.175h.524v-.215c0-.124-.024-.243-.067-.352l.002.006a.8375.8375 0 0 0-.177-.285zm3.142-.022a.9376.9376 0 0 0-.601-.223c-.108 0-.215.02-.316.057a.8376.8376 0 0 0-.483.443l-.002.005a.9397.9397 0 0 0-.077.392v1.94c-.004.137.023.272.077.397a.77.77 0 0 0 .205.271c.081.075.176.133.279.171.101.037.208.057.316.057a.9143.9143 0 0 0 .603-.229l-.001.001a.8312.8312 0 0 0 .199-.271.9345.9345 0 0 0 .077-.397v-1.958c0-.135-.029-.264-.08-.381l.002.006a.8761.8761 0 0 0-.199-.283zm-.247 2.615c.001.009.001.019.001.03 0 .099-.041.188-.106.251a.3874.3874 0 0 1-.499 0h.001a.3441.3441 0 0 1-.106-.25c0-.011 0-.022.002-.032v.001-1.941c-.001-.009-.001-.019-.001-.03 0-.098.041-.187.106-.25a.3874.3874 0 0 1 .499 0h-.001c.066.063.106.152.106.25 0 .011 0 .021-.001.032v-.001 1.941zm4.374.867v-3.675h-.508l-.668 1.945h-.009l-.674-1.945h-.503v3.674h.525v-2.235h.01l.514 1.58h.262l.518-1.58h.01v2.235h.525zm2.982-3.416a.7269.7269 0 0 0-.297-.201 1.1527 1.1527 0 0 0-.361-.057h-.8v3.675h.524v-1.435h.269a.968.968 0 0 0 .473-.1c.12-.068.217-.163.286-.278l.002-.003a.893.893 0 0 0 .12-.32c.018-.116.028-.249.028-.385v-.035.002c.005-.176-.012-.353-.051-.525a.789.789 0 0 0-.193-.338zm-.27 1.12c-.002.07-.02.136-.05.194l.001-.003a.299.299 0 0 1-.133.128l-.002.001c-.065.03-.14.047-.22.047-.01 0-.019 0-.028-.001h.001-.239v-1.249h.27c.008 0 .016-.001.025-.001.077 0 .149.017.214.048l-.003-.001c.054.031.096.078.122.134l.001.002c.029.065.044.134.046.205v.244c0 .085.005.174 0 .252h-.005zm2.75-1.378h-.429l-.81 3.675h.524l.154-.789h.714l.154.789h.523l-.829-3.675zm-.483 2.384.258-1.332h.01l.256 1.332h-.523zm3.865-.171h-.01l-.79-2.213h-.503v3.675h.523v-2.21h.011l.8 2.209h.493v-3.674h-.523v2.213zm3.199-2.213-.421 1.461h-.011l-.421-1.461h-.554l.719 2.122v1.553h.524v-1.553l.719-2.121h-.555zM17.6 28.611h.252v.708h.171v-.708h.251v-.145H17.6v.146zm2.121-.146-.331.853h.182l.07-.194h.34l.073.194h.187l-.339-.853h-.182zm-.027.516.116-.316.116.316h-.232zm2.124.023h.197v.11a.3258.3258 0 0 1-.203.072H21.8a.2185.2185 0 0 1-.169-.081.3516.3516 0 0 1-.063-.203c0-.007 0-.013.001-.02v.001c0-.19.082-.285.245-.285.006-.001.012-.001.018-.001.084 0 .155.058.174.136v.001l.169-.033c-.036-.166-.156-.251-.362-.251h-.011c-.11 0-.211.042-.287.11a.4154.4154 0 0 0-.124.296c0 .011 0 .022.001.033v-.001.02c0 .115.041.22.11.301l-.001-.001c.075.078.181.126.297.126.009 0 .018 0 .027-.001h-.001.014c.134 0 .257-.052.348-.137v-.336h-.37v.144zm2.141-.539h-.173v.853h.597v-.145h-.425v-.708zm1.811 0h-.173v.853h.173v-.853zm1.769.57-.349-.57h-.167v.853h.16v-.557l.343.557h.172v-.853h-.158v.57zm1.601-.093h.425v-.145h-.425v-.187h.457v-.146h-.63v.853h.647v-.145h-.475v-.231zm3.88-.14h-.336v-.336h-.171v.853h.171v-.373h.336v.373h.172v-.853h-.172v.337zm1.609.14h.427v-.145h-.427v-.187h.459v-.146h-.629v.853h.646v-.145h-.475v-.231zm2.183.001c.149-.023.224-.102.224-.237.001-.007.001-.015.001-.024 0-.068-.033-.128-.085-.166h-.001a.4777.4777 0 0 0-.216-.051c-.012 0-.023 0-.035.001h.002-.362v.853h.172v-.357h.048c.034 0 .066.007.094.02l-.001-.001a.181.181 0 0 1 .061.062l.186.271h.205l-.104-.166a.5984.5984 0 0 0-.187-.203l-.002-.001zm-.173-.118h-.126v-.214h.135c.011-.001.023-.001.036-.001.049 0 .097.008.141.023l-.003-.001c.023.021.037.05.037.083 0 .037-.018.069-.045.09a.4643.4643 0 0 1-.142.021c-.011 0-.022 0-.033-.001h.002zm1.82.117h.425v-.145h-.425v-.187h.459v-.146h-.631v.853h.647v-.145h-.475v-.231z"/></symbol><symbol id="icon-companyyaendco" viewBox="0 0 57 32"><path fill="#afb1b8" style="fill:var(--color3, #afb1b8)" d="m20.267 3.733 3.738 3.538-6.938-.004v17.167H35.2V17.87l3.733 3.534V3.733H20.266zm14.769 13.722L24.439 7.423h10.597v10.032zm-3.29 4.468h-11.81V10.378h.835v10.763h10.975v.781zm-9.021 4.797h.364l-.635 1.198v.698h-.331v-.698l-.637-1.198h.366l.436.899.436-.899zm.549 1.896.154-.442h.734l.155.442h.344l-.717-1.896h-.296l-.716 1.896h.342zm.52-1.493.275.786h-.549l.275-.787zm1.737.74c.047-.074.142-.161.282-.261-.073-.093-.125-.172-.155-.237-.028-.066-.043-.128-.043-.189 0-.149.045-.266.135-.352s.212-.13.364-.13h-.001.02c.123 0 .236.047.32.123a.39.39 0 0 1 .132.293v.01c0 .08-.022.154-.06.216l-.002.003a.7236.7236 0 0 1-.195.195l-.129.094.366.432c.053-.104.079-.22.079-.348h.275c0 .234-.054.425-.164.574l.278.33h-.367l-.107-.126c-.135.101-.297.153-.485.153s-.338-.05-.45-.149c-.112-.1-.168-.229-.168-.389v-.003c0-.088.027-.171.071-.238zm.856.42-.414-.489-.041.029c-.104.079-.156.17-.156.271v-.001.011c0 .079.033.151.085.203.056.051.13.083.212.083h.015a.4782.4782 0 0 0 .299-.107zm-.34-.84.145-.099.041-.032c.049-.043.08-.106.08-.177v-.007c0-.049-.019-.091-.056-.126a.1976.1976 0 0 0-.135-.054h-.015a.184.184 0 0 0-.139.063c-.036.042-.055.094-.055.157 0 .073.045.164.134.275zm3.086 1.03c-.13.113-.303.169-.519.169-.151 0-.284-.035-.4-.107-.114-.072-.203-.174-.266-.306s-.095-.285-.098-.46v-.177.001-.023c0-.163.035-.318.096-.451l.002-.005a.7235.7235 0 0 1 .27-.31c.119-.074.256-.111.411-.111.21 0 .378.057.506.171s.201.274.222.482h-.328c-.016-.136-.056-.234-.12-.294s-.157-.091-.28-.091c-.143 0-.253.052-.331.157-.076.105-.115.257-.117.46v.167c0 .205.037.362.11.469s.181.162.323.162c.129 0 .227-.029.292-.087s.106-.155.124-.29h.328c-.019.202-.094.36-.224.474zm1.936-.266c.064-.141.097-.304.097-.49v-.125c0-.169-.036-.329-.102-.473l.003.007a.7277.7277 0 0 0-.274-.318l-.003-.002c-.119-.075-.256-.112-.411-.112s-.291.037-.411.113c-.119.075-.211.182-.277.324-.062.137-.098.297-.098.466v.025-.001.107c.001.181.034.341.099.48.066.139.159.246.279.322.121.075.258.112.411.112.156 0 .293-.037.412-.112.119-.076.212-.183.276-.323zm-.353-1.072c.08.112.119.274.119.484v.099c0 .213-.039.376-.118.487-.078.111-.19.167-.336.167h-.014a.3929.3929 0 0 1-.324-.17l-.001-.001c-.081-.114-.121-.275-.121-.483v-.109c.002-.204.043-.362.122-.473a.3896.3896 0 0 1 .321-.168h.014-.001c.146 0 .259.056.338.168z"/></symbol><symbol id="icon-diagram" viewBox="0 0 32 32"><path fill="#2196f3" style="fill:var(--color2, #2196f3)" d="M14.926 14.965h1.066v4.798h-1.066v-4.798zm4.264 2.132h1.066v2.665H19.19v-2.665zm-8.529 1.599h1.066v1.066h-1.066v-1.066zm-3.198-.533h1.066v1.599H7.463v-1.599z"/><path fill="#212121" style="fill:var(--color1, #212121)" d="M1.599 28.291h25.586c.883 0 1.599-.716 1.599-1.599V24.56c0-.883-.716-1.599-1.599-1.599h-.533V9.667l3.028-2.868c.207.104.452.166.711.166.888 0 1.608-.72 1.608-1.608s-.72-1.608-1.608-1.608c-.888 0-1.608.72-1.608 1.608 0 .247.056.481.155.69l-.004-.01-2.281 2.162v-1.23c0-.883-.716-1.599-1.599-1.599H3.731c-.883 0-1.599.716-1.599 1.599v15.992h-.533C.716 22.961 0 23.677 0 24.56v2.132c0 .883.716 1.599 1.599 1.599zM30.384 4.837c.294 0 .533.239.533.533s-.239.533-.533.533c-.294 0-.533-.239-.533-.533s.239-.533.533-.533zM3.198 6.969c0-.294.239-.533.533-.533h21.323c.294 0 .533.239.533.533v2.239l-1.066 1.013V8.036c0-.295-.239-.534-.534-.534H4.798c-.294 0-.534.239-.534.533v13.327c0 .294.239.533.534.533h19.189c.295 0 .534-.239.534-.533v-9.675l1.066-1.01V22.96H3.198V6.969zm4.798 6.93h-.005c-.883 0-1.599.716-1.599 1.599s.716 1.599 1.599 1.599c.432 0 .824-.172 1.112-.45l1.853.93c.215.107.476.057.636-.122l3.939-4.432 3.872 2.902c.208.155.498.139.686-.039l3.365-3.188v8.131H5.331V8.568h18.123v2.661l-3.771 3.572-3.904-2.927a.5286.5286 0 0 0-.32-.107c-.158 0-.3.069-.398.178v.001l-3.993 4.493-1.493-.746c.011-.064.017-.128.02-.193 0-.883-.716-1.599-1.599-1.599zm.533 1.599c0 .294-.239.533-.533.533s-.533-.239-.533-.533c0-.294.239-.533.533-.533s.533.239.533.533zm3.198 8.528h5.33v.533c0 .294-.238.533-.533.533h-4.265a.5335.5335 0 0 1-.533-.533v-.533zm-10.66.534c0-.294.238-.533.533-.533h9.062v.533c0 .883.716 1.599 1.599 1.599h4.265c.883 0 1.599-.716 1.599-1.599v-.533h9.062c.294 0 .533.239.533.533v2.132c0 .294-.239.533-.533.533H1.601a.5335.5335 0 0 1-.533-.533V24.56z"/></symbol><symbol id="icon-envelope" viewBox="0 0 43 32"><path fill="#757575" style="fill:var(--color4, #757575)" d="M38.667 0H4C1.795 0 0 1.795 0 4v24c0 2.205 1.795 4 4 4h34.667c2.205 0 4-1.795 4-4V4c0-2.205-1.795-4-4-4zm0 2.667c.181 0 .355.037.512.104L21.334 18.238 3.489 2.771c.151-.065.327-.104.512-.104h34.667zm0 26.666H4c-.736 0-1.333-.597-1.333-1.333V5.587l17.792 15.421c.233.203.539.327.875.327s.642-.124.876-.328l-.002.001L40 5.587V28c0 .736-.597 1.333-1.333 1.333z"/></symbol><symbol id="icon-facebook" viewBox="0 0 32 32"><path   d="M21.328 5.312h2.923V.224C23.019.081 21.591 0 20.143 0h-.156.008c-4.213 0-7.099 2.65-7.099 7.52V12H8.25v5.688h4.646V32h5.699V17.69h4.459l.707-5.688h-5.168V8.08c0-1.643.443-2.768 2.734-2.768z"/></symbol><symbol id="icon-instagram" viewBox="0 0 32 32"><path   d="M31.968 9.408c-.074-1.701-.349-2.869-.742-3.882-.424-1.111-1.054-2.059-1.85-2.837l-.001-.001A7.9057 7.9057 0 0 0 26.597.861l-.054-.018C25.524.449 24.362.176 22.661.101 20.949.019 20.405 0 16.059 0c-4.344 0-4.888.019-6.595.094-1.699.074-2.869.349-3.88.742-1.112.424-2.06 1.054-2.839 1.85l-.001.001c-.791.78-1.418 1.724-1.825 2.778l-.018.054C.506 6.538.232 7.7.157 9.401c-.082 1.712-.101 2.256-.101 6.602 0 4.344.019 4.888.094 6.595.075 1.701.35 2.869.744 3.882.426 1.11 1.055 2.057 1.849 2.837l.001.001c.8.813 1.77 1.443 2.832 1.843 1.019.395 2.182.67 3.882.744 1.707.075 2.251.094 6.595.094 4.346 0 4.89-.019 6.595-.094 1.701-.074 2.869-.349 3.882-.742 2.157-.85 3.833-2.526 4.664-4.628l.019-.055c.394-1.019.669-2.182.744-3.882.075-1.707.093-2.251.093-6.595s-.006-4.888-.08-6.595zm-2.88 13.066c-.07 1.563-.333 2.406-.55 2.97-.552 1.399-1.64 2.486-3.004 3.024l-.036.012c-.56.219-1.411.482-2.968.55-1.688.075-2.194.094-6.464.094-4.269 0-4.782-.019-6.464-.094-1.563-.069-2.406-.331-2.97-.55-.721-.269-1.334-.676-1.836-1.192l-.001-.001a4.9782 4.9782 0 0 1-1.184-1.803L3.6 25.45c-.218-.563-.48-1.413-.549-2.97-.075-1.688-.094-2.195-.094-6.464 0-4.27.019-4.784.094-6.464.069-1.563.331-2.406.549-2.97.269-.722.678-1.337 1.198-1.837l.002-.002a4.972 4.972 0 0 1 1.806-1.182l.034-.011c.56-.219 1.411-.48 2.968-.55 1.688-.074 2.195-.093 6.464-.093 4.275 0 4.782.019 6.464.093 1.563.069 2.406.331 2.97.55.693.256 1.325.662 1.837 1.194.531.52.938 1.144 1.195 1.84.218.56.48 1.411.549 2.968.075 1.688.094 2.194.094 6.464 0 4.269-.019 4.768-.094 6.458z"/><path   d="M16.059 7.782c-4.539.002-8.218 3.682-8.219 8.221v.002c0 4.541 3.681 8.222 8.222 8.222s8.222-3.681 8.222-8.222c0-4.541-3.681-8.222-8.222-8.222h-.002zm0 13.552c-2.945 0-5.332-2.388-5.332-5.333s2.388-5.333 5.333-5.333h.001c2.946 0 5.334 2.388 5.334 5.334s-2.388 5.334-5.334 5.334zM26.525 7.458c0 1.06-.86 1.92-1.92 1.92s-1.92-.86-1.92-1.92.86-1.92 1.92-1.92 1.92.86 1.92 1.92z"/></symbol><symbol id="icon-linkedin" viewBox="0 0 32 32"><path d="M31.992 32H32V20.262c0-5.741-1.237-10.163-7.947-10.163-3.227 0-5.392 1.77-6.277 3.45h-.093v-2.914h-6.365v21.363h6.627V21.42c0-2.786.528-5.48 3.978-5.48 3.398 0 3.448 3.179 3.448 5.658V32h6.621zM.528 10.635h6.635V32H.528V10.635zM3.843 0C1.72 0 0 1.721 0 3.843c0 2.12 1.722 3.878 3.843 3.878 2.12 0 3.842-1.757 3.842-3.878S5.965.002 3.844 0z"/></symbol><symbol id="icon-twitter" viewBox="0 0 32 32"><path d="M32 6.078c-1.1.493-2.376.857-3.713 1.028l-.068.007c1.36-.817 2.382-2.078 2.873-3.579l.013-.046c-1.198.722-2.591 1.273-4.076 1.573l-.084.014c-1.2-1.279-2.9-2.076-4.787-2.076-3.622 0-6.558 2.936-6.558 6.558v.004c0 .52.043 1.021.152 1.496-5.454-.266-10.28-2.88-13.522-6.861-.564.949-.899 2.092-.902 3.313v.001c0 2.272 1.171 4.286 2.914 5.451-1.091-.03-2.107-.325-2.994-.823l.033.017v.072c.003 3.165 2.236 5.807 5.213 6.44l.043.008c-.499.136-1.071.215-1.662.215h-.061.003c-.419 0-.843-.024-1.242-.112.85 2.598 3.261 4.509 6.13 4.57-2.215 1.746-5.046 2.8-8.123 2.8H1.57h.001c-.538 0-1.053-.026-1.57-.091 2.827 1.846 6.287 2.944 10.004 2.944h.063-.003c12.072 0 18.672-10 18.672-18.669 0-.288-.01-.57-.024-.848 1.299-.936 2.391-2.065 3.258-3.356l.03-.047z"/></symbol><symbol id="icon-vectorphone" viewBox="0 0 20 32"><path fill="#757575" style="fill:var(--color4, #757575)" d="M17 0H3C1.346 0 0 1.346 0 3v26c0 1.654 1.346 3 3 3h14c1.654 0 3-1.346 3-3V3c0-1.654-1.346-3-3-3zM3 2h14c.552 0 1 .448 1 1v21H2V3c0-.552.448-1 1-1zm14 28H3c-.552 0-1-.448-1-1v-3h16v3c0 .552-.448 1-1 1z"/></symbol></defs></svg>